<svg xmlns="http://www.w3.org/2000/svg" viewBox="0 0 821.29 425.08"><defs><style>.cls-1{fill:#fff;}</style></defs><g id="Layer_2" data-name="Layer 2"><g id="App_Icon_Kit_B" data-name="App Icon Kit B"><g id="App_Icon_and_Badge" data-name="App Icon and Badge"><g id="Main"><path class="cls-1" d="M133.7,1.08C110.76,4.6,89.59,13.76,68.51,29.3c-9.16,6.64-30,27.81-36.38,36.71-40.74,57.46-42.84,127.36-5.71,193.55,7.9,14.12,14.79,22.94,28.23,36.38s23.27,20.75,37.88,28.22l10.08,5.21,2.94,8.07c4,11.17,15.63,34.44,21.68,43.43,10.58,15.62,23.6,28.56,36,35.62,20.75,11.84,44.36,11.42,61.91-1.1,20.59-14.7,43.52-57.54,56.46-105.59L284,301l14.37-14.7a450.9,450.9,0,0,0,34.44-39.23c2.19-2.94,4-5.3,4.12-5.3s.08,8.24.08,18.32c0,16,.25,19.32,2,27.05,7.14,32.26,22.18,51.74,41.92,54.43,16.63,2.27,31-6.55,49-30.24,5.21-6.8,13.11-19.49,15-24.19l1.09-2.61,3.61,7.73a118.17,118.17,0,0,0,7.4,12.94c13.69,19.15,35,26.12,53,17.3,13-6.38,31.34-27.3,42.09-47.88l3.19-6.05,1.94,7.39c6.8,25.63,23.6,48.22,42.67,57.38,12.94,6.22,25.29,6.72,36,1.43,14.61-7.31,33.85-27,46.28-47.55,1.77-2.77,3.2-5.12,3.28-5.12s.25,5.37.25,12a99.19,99.19,0,0,0,1.93,20.75c7.23,34.44,31.17,59.06,55.28,56.87,17.05-1.6,44.1-24.19,60.32-50.23,8-12.86,18.06-35.2,18.06-40.08,0-2-3.11-4.95-4.12-3.86-.42.42-2.27,4.7-4.2,9.58-14.2,36.54-42,68-63.17,71.32-21.42,3.44-32.93-14-30.24-45.7,2.1-24.11,8.73-46.37,20.83-70.15,7.48-14.45,12.6-23.1,28.14-47,7.39-11.34,14.7-23.19,16.3-26.46,3.7-7.56,4.45-13.28,2.1-17-4.62-7.39-24.11-11.09-36.46-6.89-11.68,4-21,14.2-34.86,38.39-9.83,17-18.4,39.48-24.2,62.67a88.56,88.56,0,0,1-7.81,21.59c-9.07,18.23-20.33,33.35-32.59,44.1-7.14,6.22-10.76,8.24-18.06,10.08-17.81,4.62-31.51-5.63-36.55-27.38-2.1-8.91-2.1-42.76,0-55,5-28.73,14-52.42,37.3-98.54,14.87-29.23,18.32-37,19.66-44.44,2.27-12.26-6.3-18.14-26.63-18.06-13.44,0-24.19,5.3-32.68,16-8.4,10.58-19.4,32.93-26.38,53.59-10.25,30.58-16.38,69.39-14.87,94.93l.59,9.41L550,261.24c-9.33,23.78-25.54,44.11-41.75,52.09-12.35,6.13-19.75,4.45-24.53-5.46-3.53-7.23-4.62-14.7-4-27.81.93-22.18,9.33-54.27,27.39-103.83,4.54-12.69,3.28-21.34-4.12-26.46-4.78-3.36-15.62-6.3-23-6.3-10.92.08-15,3.36-22.27,18-6.55,13.28-10.75,28.9-14.44,53.43-2.1,13.78-2.69,43.43-1,52.51.84,4.53.75,5.54-1,10.08-5.55,14.78-14,28.39-23.86,38.47-8.15,8.4-16,14-22.6,16.13-15.79,5.21-22.93-6.22-21.75-34.86.75-19.49,5.62-41.92,14.11-65.78,5.54-15.71,5.38-22.93-.84-28.56-4.71-4.2-11.59-6.55-20.83-7.14-7.15-.34-8.15-.25-12.27,1.85a19.14,19.14,0,0,0-6.89,5.46c-2.35,3.52-5.46,12.26-5.46,15.62,0,2.35-10.33,18.06-20.58,31.08-8.15,10.5-28.31,32.77-30.83,34.11-1.6.84-1.68.76-1.26-1.09,1.09-4.37,4.79-28.14,6.22-39.9,2.1-17.81,2.1-66.79,0-84.68-4.12-34.53-9.75-56.12-20.5-78.55C265.59,62.32,257.61,51,244.67,38,225.43,18.8,206.45,8.38,180.15,2.67,167.3-.1,145.79-.86,133.7,1.08ZM174,19.14c13.19,1.93,23.86,5.88,36.29,13.61,10.84,6.63,27.47,23.35,35.79,36,16.46,25,25.79,53.68,31,95.35,1.68,13.44,1.43,67.45-.42,83.16-1.84,15-4.11,28.57-6.88,41.17-3.62,16.13-2.94,14.78-11.18,20.16-15.71,10.25-34.86,18.23-50.74,21.08-11.51,2.1-32.84,1.94-44.27-.33-13-2.69-20.24-5.13-21.08-7.23a121.45,121.45,0,0,1-1.94-12.68c-4.87-39.32-3.94-74.6,3.2-113.41,4.28-23.61,13.52-56.79,21.84-78.63,6.13-15.88,2.94-24.78-10.5-29.82-2.52-.93-6.55-1.43-12.18-1.51-7.48-.09-8.91.16-13.19,2.18-7.65,3.53-12,8.65-18.9,22.09-13.78,27.14-21.59,54-25.12,87-2.69,25.37-.25,67.63,5.21,89.39.67,2.85-9.41-8.49-15.54-17.56-14-20.67-22.77-42.34-27.56-68.55-1.76-9.83-2-38.56-.42-50C51.29,123.47,58.51,101,70.27,79.28c12.1-22.17,29.82-42,45.36-50.73,5.63-3.2,18.57-7.57,26.47-9C149.24,18.21,166,18,174,19.14Zm87.79,299.39c0,1.35-8.49,24.28-11.93,32.35-12,28.14-27.47,49-41.84,56.45-5,2.69-6,2.86-13.44,2.86-7.22,0-8.48-.26-12.94-2.52-13.52-6.89-25.37-27.14-33.26-56.88-1.26-5-2.19-9.07-2-9.24s2.69-.08,5.55.34c13.27,1.68,45.44.59,59-1.93,12.43-2.27,34.19-11.34,45.79-19.07C260.38,318.45,261.81,317.78,261.81,318.53Z"/><path class="cls-1" d="M502.9,83.91c-8.48,1.68-15.2,9.57-15.79,18.73a19.8,19.8,0,0,0,20.16,21.5c8.65,0,15-4.11,18.82-12.18C533.15,97.09,519.62,80.71,502.9,83.91Z"/><path class="cls-1" d="M378.57,131.62c-10.08,1.93-17.8,12.6-16.46,22.68,1,7.23,7.48,15.12,13.94,16.89,13.87,3.86,26.89-5.63,26.89-19.49A20.65,20.65,0,0,0,378.57,131.62Z"/></g></g></g></g></svg>